# xmcd CD database file
#
# Track frame offsets:
#	150
#	17896
#	32117
#	48288
#	62059
#	75455
#	93131
#	109677
#	125473
#	143744
#	158490
#	180886
#	192932
#
# Disc length: 2757 seconds
#
# Revision: 0
# Processed by: cddbd v1.4PL0 Copyright (c) Steve Scherf et al.
# Submitted via: CDex 1.51
#
DISCID=970ac30d
DTITLE=Prairie Rose Hands - Rolling Kansas Plains
DYEAR=1900
DGENRE=Country
TTITLE0=Big Iron
TTITLE1=Colorado Trail
TTITLE2=Rolling Kansas Plains
TTITLE3=Tumbling Tumbleweeds
TTITLE4=Wayward Wind
TTITLE5=Along the Santa Fe Trail
TTITLE6=Strawberry Roan
TTITLE7=Man Walks Among Us
TTITLE8=Ridn' Down the Canyon
TTITLE9=(Ghost) Riders in the Sky
TTITLE10=Shenandoah
TTITLE11=Blue Prairie
TTITLE12=They Call the Wind Maria
EXTD=
EXTT0=
EXTT1=
EXTT2=
EXTT3=
EXTT4=
EXTT5=
EXTT6=
EXTT7=
EXTT8=
EXTT9=
EXTT10=
EXTT11=
EXTT12=
PLAYORDER=
